<mxfile host="app.diagrams.net" modified="2023-12-27T16:05:25.542Z" agent="Mozilla/5.0 (Windows NT 10.0; Win64; x64) AppleWebKit/537.36 (KHTML, like Gecko) Chrome/120.0.0.0 Safari/537.36" etag="fIX6WYRoUWRDwkLsBcOt" version="22.1.13" type="device">
  <diagram name="Seite-1" id="dck_iIZuQPvnWqXbcy-q">
    <mxGraphModel dx="2074" dy="1160" grid="1" gridSize="10" guides="1" tooltips="1" connect="1" arrows="1" fold="1" page="1" pageScale="1" pageWidth="827" pageHeight="1169" math="0" shadow="0">
      <root>
        <mxCell id="0" />
        <mxCell id="1" parent="0" />
        <mxCell id="fhoYh320oMYoI7bT71kg-97" value="Tritium Plant" style="rounded=0;whiteSpace=wrap;html=1;verticalAlign=top;" vertex="1" parent="1">
          <mxGeometry x="890" y="50" width="300" height="460" as="geometry" />
        </mxCell>
        <mxCell id="fhoYh320oMYoI7bT71kg-95" value="" style="group;horizontal=0;" vertex="1" connectable="0" parent="1">
          <mxGeometry x="890" y="527" width="303" height="303" as="geometry" />
        </mxCell>
        <mxCell id="fhoYh320oMYoI7bT71kg-64" value="Buffer" style="whiteSpace=wrap;html=1;aspect=fixed;verticalAlign=top;" vertex="1" parent="fhoYh320oMYoI7bT71kg-95">
          <mxGeometry width="303" height="303" as="geometry" />
        </mxCell>
        <mxCell id="fhoYh320oMYoI7bT71kg-31" value="&lt;font style=&quot;font-size: 10px;&quot;&gt;Chemical Tank&lt;/font&gt;" style="shape=cylinder3;whiteSpace=wrap;html=1;boundedLbl=1;backgroundOutline=1;size=15;" vertex="1" parent="fhoYh320oMYoI7bT71kg-95">
          <mxGeometry x="30" y="173" width="40" height="60" as="geometry" />
        </mxCell>
        <mxCell id="fhoYh320oMYoI7bT71kg-34" value="&lt;font style=&quot;font-size: 10px;&quot;&gt;wired modem&lt;/font&gt;" style="whiteSpace=wrap;html=1;aspect=fixed;fillColor=#ffe6cc;strokeColor=#d79b00;" vertex="1" parent="fhoYh320oMYoI7bT71kg-95">
          <mxGeometry x="30" y="143" width="40" height="40" as="geometry" />
        </mxCell>
        <mxCell id="fhoYh320oMYoI7bT71kg-36" value="&lt;font style=&quot;font-size: 10px;&quot;&gt;Chemical Tank&lt;/font&gt;" style="shape=cylinder3;whiteSpace=wrap;html=1;boundedLbl=1;backgroundOutline=1;size=15;" vertex="1" parent="fhoYh320oMYoI7bT71kg-95">
          <mxGeometry x="110" y="53" width="40" height="60" as="geometry" />
        </mxCell>
        <mxCell id="fhoYh320oMYoI7bT71kg-37" value="&lt;font style=&quot;font-size: 10px;&quot;&gt;wired modem&lt;/font&gt;" style="whiteSpace=wrap;html=1;aspect=fixed;fillColor=#ffe6cc;strokeColor=#d79b00;" vertex="1" parent="fhoYh320oMYoI7bT71kg-95">
          <mxGeometry x="110" y="23" width="40" height="40" as="geometry" />
        </mxCell>
        <mxCell id="fhoYh320oMYoI7bT71kg-42" value="&lt;font style=&quot;font-size: 10px;&quot;&gt;chem.&lt;br&gt;infuser&lt;/font&gt;" style="whiteSpace=wrap;html=1;aspect=fixed;" vertex="1" parent="fhoYh320oMYoI7bT71kg-95">
          <mxGeometry x="190" y="193" width="40" height="40" as="geometry" />
        </mxCell>
        <mxCell id="fhoYh320oMYoI7bT71kg-43" style="edgeStyle=orthogonalEdgeStyle;rounded=0;orthogonalLoop=1;jettySize=auto;html=1;" edge="1" parent="fhoYh320oMYoI7bT71kg-95" source="fhoYh320oMYoI7bT71kg-31" target="fhoYh320oMYoI7bT71kg-42">
          <mxGeometry relative="1" as="geometry">
            <Array as="points">
              <mxPoint x="130" y="213" />
              <mxPoint x="130" y="213" />
            </Array>
          </mxGeometry>
        </mxCell>
        <mxCell id="fhoYh320oMYoI7bT71kg-44" style="edgeStyle=orthogonalEdgeStyle;rounded=0;orthogonalLoop=1;jettySize=auto;html=1;entryX=0.5;entryY=0;entryDx=0;entryDy=0;" edge="1" parent="fhoYh320oMYoI7bT71kg-95" source="fhoYh320oMYoI7bT71kg-36" target="fhoYh320oMYoI7bT71kg-42">
          <mxGeometry relative="1" as="geometry">
            <Array as="points">
              <mxPoint x="210" y="93" />
            </Array>
          </mxGeometry>
        </mxCell>
        <mxCell id="fhoYh320oMYoI7bT71kg-93" value="" style="group;dashed=1;" vertex="1" connectable="0" parent="1">
          <mxGeometry x="890" y="840" width="300" height="310" as="geometry" />
        </mxCell>
        <mxCell id="fhoYh320oMYoI7bT71kg-28" value="" style="whiteSpace=wrap;html=1;aspect=fixed;" vertex="1" parent="fhoYh320oMYoI7bT71kg-93">
          <mxGeometry y="10" width="300" height="300" as="geometry" />
        </mxCell>
        <mxCell id="fhoYh320oMYoI7bT71kg-29" value="" style="group" vertex="1" connectable="0" parent="fhoYh320oMYoI7bT71kg-93">
          <mxGeometry x="70" width="190" height="240" as="geometry" />
        </mxCell>
        <mxCell id="fhoYh320oMYoI7bT71kg-15" value="Fusion Reactor" style="shape=hexagon;perimeter=hexagonPerimeter2;whiteSpace=wrap;html=1;fixedSize=1;" vertex="1" parent="fhoYh320oMYoI7bT71kg-29">
          <mxGeometry y="80" width="160" height="160" as="geometry" />
        </mxCell>
        <mxCell id="fhoYh320oMYoI7bT71kg-16" value="&lt;font style=&quot;font-size: 10px;&quot;&gt;Logic Adapter&lt;/font&gt;" style="whiteSpace=wrap;html=1;aspect=fixed;" vertex="1" parent="fhoYh320oMYoI7bT71kg-29">
          <mxGeometry y="40" width="40" height="40" as="geometry" />
        </mxCell>
        <mxCell id="fhoYh320oMYoI7bT71kg-17" value="Input Deut" style="whiteSpace=wrap;html=1;aspect=fixed;" vertex="1" parent="fhoYh320oMYoI7bT71kg-29">
          <mxGeometry x="40" y="40" width="40" height="40" as="geometry" />
        </mxCell>
        <mxCell id="fhoYh320oMYoI7bT71kg-18" value="Input Tri" style="whiteSpace=wrap;html=1;aspect=fixed;" vertex="1" parent="fhoYh320oMYoI7bT71kg-29">
          <mxGeometry x="80" y="40" width="40" height="40" as="geometry" />
        </mxCell>
        <mxCell id="fhoYh320oMYoI7bT71kg-19" value="Input D-T" style="whiteSpace=wrap;html=1;aspect=fixed;" vertex="1" parent="fhoYh320oMYoI7bT71kg-29">
          <mxGeometry x="120" y="40" width="40" height="40" as="geometry" />
        </mxCell>
        <mxCell id="fhoYh320oMYoI7bT71kg-25" value="Input water" style="whiteSpace=wrap;html=1;aspect=fixed;" vertex="1" parent="fhoYh320oMYoI7bT71kg-29">
          <mxGeometry x="150" y="142.14999999999998" width="40" height="40" as="geometry" />
        </mxCell>
        <mxCell id="fhoYh320oMYoI7bT71kg-26" value="&lt;font style=&quot;font-size: 10px;&quot;&gt;wired modem&lt;/font&gt;" style="whiteSpace=wrap;html=1;aspect=fixed;fillColor=#ffe6cc;strokeColor=#d79b00;" vertex="1" parent="fhoYh320oMYoI7bT71kg-29">
          <mxGeometry width="40" height="40" as="geometry" />
        </mxCell>
        <mxCell id="fhoYh320oMYoI7bT71kg-92" value="output energy" style="whiteSpace=wrap;html=1;aspect=fixed;fillColor=#d5e8d4;strokeColor=#82b366;" vertex="1" parent="fhoYh320oMYoI7bT71kg-29">
          <mxGeometry x="-20" y="142.14999999999998" width="40" height="40" as="geometry" />
        </mxCell>
        <mxCell id="fhoYh320oMYoI7bT71kg-89" value="output steam" style="whiteSpace=wrap;html=1;aspect=fixed;" vertex="1" parent="fhoYh320oMYoI7bT71kg-93">
          <mxGeometry x="130" y="220" width="40" height="40" as="geometry" />
        </mxCell>
        <mxCell id="fhoYh320oMYoI7bT71kg-65" value="" style="rounded=0;whiteSpace=wrap;html=1;" vertex="1" parent="1">
          <mxGeometry x="450" y="210" width="300" height="300" as="geometry" />
        </mxCell>
        <mxCell id="fhoYh320oMYoI7bT71kg-66" value="Tritium Plant&lt;br&gt;display" style="whiteSpace=wrap;html=1;aspect=fixed;" vertex="1" parent="1">
          <mxGeometry x="480" y="240" width="120" height="120" as="geometry" />
        </mxCell>
        <mxCell id="fhoYh320oMYoI7bT71kg-67" value="RT PC" style="whiteSpace=wrap;html=1;aspect=fixed;fillColor=#ffe6cc;strokeColor=#d79b00;" vertex="1" parent="1">
          <mxGeometry x="600" y="320" width="40" height="40" as="geometry" />
        </mxCell>
        <mxCell id="fhoYh320oMYoI7bT71kg-68" value="" style="sketch=0;aspect=fixed;pointerEvents=1;shadow=0;dashed=0;html=1;strokeColor=#d79b00;labelPosition=center;verticalLabelPosition=bottom;verticalAlign=top;align=center;fillColor=#ffe6cc;shape=mxgraph.mscae.enterprise.wireless_connection" vertex="1" parent="1">
          <mxGeometry x="640" y="322.15" width="30" height="35.71" as="geometry" />
        </mxCell>
        <mxCell id="fhoYh320oMYoI7bT71kg-69" value="ender modem" style="text;html=1;strokeColor=none;fillColor=none;align=center;verticalAlign=middle;whiteSpace=wrap;rounded=0;" vertex="1" parent="1">
          <mxGeometry x="660" y="325" width="60" height="30" as="geometry" />
        </mxCell>
        <mxCell id="fhoYh320oMYoI7bT71kg-70" value="&lt;h1&gt;&lt;font style=&quot;font-size: 17px;&quot;&gt;Settings&lt;/font&gt;&lt;/h1&gt;&lt;p&gt;IsDisplay = true&lt;br&gt;IsReceiver = false&lt;br&gt;isTransmitter = true&lt;/p&gt;" style="text;html=1;strokeColor=none;fillColor=none;spacing=5;spacingTop=-20;whiteSpace=wrap;overflow=hidden;rounded=0;" vertex="1" parent="1">
          <mxGeometry x="480" y="380" width="240" height="100" as="geometry" />
        </mxCell>
        <mxCell id="fhoYh320oMYoI7bT71kg-71" value="&lt;font style=&quot;font-size: 10px;&quot;&gt;wired modem&lt;/font&gt;" style="whiteSpace=wrap;html=1;aspect=fixed;fillColor=#ffe6cc;strokeColor=#d79b00;" vertex="1" parent="1">
          <mxGeometry x="600" y="280" width="40" height="40" as="geometry" />
        </mxCell>
        <mxCell id="fhoYh320oMYoI7bT71kg-6" value="" style="rounded=0;whiteSpace=wrap;html=1;" vertex="1" parent="1">
          <mxGeometry x="50" y="130" width="300" height="300" as="geometry" />
        </mxCell>
        <mxCell id="fhoYh320oMYoI7bT71kg-1" value="main display" style="whiteSpace=wrap;html=1;aspect=fixed;" vertex="1" parent="1">
          <mxGeometry x="80" y="160" width="120" height="120" as="geometry" />
        </mxCell>
        <mxCell id="fhoYh320oMYoI7bT71kg-2" value="main PC" style="whiteSpace=wrap;html=1;aspect=fixed;fillColor=#ffe6cc;strokeColor=#d79b00;" vertex="1" parent="1">
          <mxGeometry x="200" y="240" width="40" height="40" as="geometry" />
        </mxCell>
        <mxCell id="fhoYh320oMYoI7bT71kg-4" value="" style="sketch=0;aspect=fixed;pointerEvents=1;shadow=0;dashed=0;html=1;strokeColor=#d79b00;labelPosition=center;verticalLabelPosition=bottom;verticalAlign=top;align=center;fillColor=#ffe6cc;shape=mxgraph.mscae.enterprise.wireless_connection" vertex="1" parent="1">
          <mxGeometry x="240" y="242.15" width="30" height="35.71" as="geometry" />
        </mxCell>
        <mxCell id="fhoYh320oMYoI7bT71kg-5" value="ender modem" style="text;html=1;strokeColor=none;fillColor=none;align=center;verticalAlign=middle;whiteSpace=wrap;rounded=0;" vertex="1" parent="1">
          <mxGeometry x="260" y="245" width="60" height="30" as="geometry" />
        </mxCell>
        <mxCell id="fhoYh320oMYoI7bT71kg-7" value="&lt;h1&gt;&lt;font style=&quot;font-size: 17px;&quot;&gt;Settings&lt;/font&gt;&lt;/h1&gt;&lt;p&gt;IsDisplay = true&lt;br&gt;IsReceiver = true&lt;br&gt;isTransmitter = false&lt;/p&gt;" style="text;html=1;strokeColor=none;fillColor=none;spacing=5;spacingTop=-20;whiteSpace=wrap;overflow=hidden;rounded=0;" vertex="1" parent="1">
          <mxGeometry x="80" y="300" width="240" height="100" as="geometry" />
        </mxCell>
        <mxCell id="fhoYh320oMYoI7bT71kg-8" value="" style="rounded=0;whiteSpace=wrap;html=1;" vertex="1" parent="1">
          <mxGeometry x="450" y="850" width="300" height="300" as="geometry" />
        </mxCell>
        <mxCell id="fhoYh320oMYoI7bT71kg-9" value="reactor &amp;amp; turbine display" style="whiteSpace=wrap;html=1;aspect=fixed;" vertex="1" parent="1">
          <mxGeometry x="480" y="880" width="120" height="120" as="geometry" />
        </mxCell>
        <mxCell id="fhoYh320oMYoI7bT71kg-10" value="RT PC" style="whiteSpace=wrap;html=1;aspect=fixed;fillColor=#ffe6cc;strokeColor=#d79b00;" vertex="1" parent="1">
          <mxGeometry x="600" y="960" width="40" height="40" as="geometry" />
        </mxCell>
        <mxCell id="fhoYh320oMYoI7bT71kg-11" value="" style="sketch=0;aspect=fixed;pointerEvents=1;shadow=0;dashed=0;html=1;strokeColor=#d79b00;labelPosition=center;verticalLabelPosition=bottom;verticalAlign=top;align=center;fillColor=#ffe6cc;shape=mxgraph.mscae.enterprise.wireless_connection" vertex="1" parent="1">
          <mxGeometry x="640" y="962.15" width="30" height="35.71" as="geometry" />
        </mxCell>
        <mxCell id="fhoYh320oMYoI7bT71kg-12" value="ender modem" style="text;html=1;strokeColor=none;fillColor=none;align=center;verticalAlign=middle;whiteSpace=wrap;rounded=0;" vertex="1" parent="1">
          <mxGeometry x="660" y="965" width="60" height="30" as="geometry" />
        </mxCell>
        <mxCell id="fhoYh320oMYoI7bT71kg-13" value="&lt;h1&gt;&lt;font style=&quot;font-size: 17px;&quot;&gt;Settings&lt;/font&gt;&lt;/h1&gt;&lt;p&gt;IsDisplay = true&lt;br&gt;IsReceiver = false&lt;br&gt;isTransmitter = true&lt;/p&gt;" style="text;html=1;strokeColor=none;fillColor=none;spacing=5;spacingTop=-20;whiteSpace=wrap;overflow=hidden;rounded=0;" vertex="1" parent="1">
          <mxGeometry x="480" y="1020" width="240" height="100" as="geometry" />
        </mxCell>
        <mxCell id="fhoYh320oMYoI7bT71kg-14" value="&lt;font style=&quot;font-size: 10px;&quot;&gt;wired modem&lt;/font&gt;" style="whiteSpace=wrap;html=1;aspect=fixed;fillColor=#ffe6cc;strokeColor=#d79b00;" vertex="1" parent="1">
          <mxGeometry x="600" y="920" width="40" height="40" as="geometry" />
        </mxCell>
        <mxCell id="fhoYh320oMYoI7bT71kg-23" value="" style="edgeStyle=orthogonalEdgeStyle;rounded=0;orthogonalLoop=1;jettySize=auto;html=1;" edge="1" parent="1" source="fhoYh320oMYoI7bT71kg-20" target="fhoYh320oMYoI7bT71kg-21">
          <mxGeometry relative="1" as="geometry" />
        </mxCell>
        <mxCell id="fhoYh320oMYoI7bT71kg-20" value="Themal Evaporation Plant&lt;br&gt;(Brine)" style="whiteSpace=wrap;html=1;aspect=fixed;" vertex="1" parent="1">
          <mxGeometry x="1000" y="80" width="80" height="80" as="geometry" />
        </mxCell>
        <mxCell id="fhoYh320oMYoI7bT71kg-24" value="" style="edgeStyle=orthogonalEdgeStyle;rounded=0;orthogonalLoop=1;jettySize=auto;html=1;" edge="1" parent="1" source="fhoYh320oMYoI7bT71kg-21" target="fhoYh320oMYoI7bT71kg-22">
          <mxGeometry relative="1" as="geometry" />
        </mxCell>
        <mxCell id="fhoYh320oMYoI7bT71kg-21" value="Themal Evaporation Plant&lt;br&gt;(Lithium)" style="whiteSpace=wrap;html=1;aspect=fixed;" vertex="1" parent="1">
          <mxGeometry x="1000" y="200" width="80" height="80" as="geometry" />
        </mxCell>
        <mxCell id="fhoYh320oMYoI7bT71kg-52" style="edgeStyle=orthogonalEdgeStyle;rounded=0;orthogonalLoop=1;jettySize=auto;html=1;entryX=1;entryY=0.25;entryDx=0;entryDy=0;" edge="1" parent="1" source="fhoYh320oMYoI7bT71kg-22" target="fhoYh320oMYoI7bT71kg-46">
          <mxGeometry relative="1" as="geometry">
            <Array as="points">
              <mxPoint x="1060" y="410" />
            </Array>
          </mxGeometry>
        </mxCell>
        <mxCell id="fhoYh320oMYoI7bT71kg-53" style="edgeStyle=orthogonalEdgeStyle;rounded=0;orthogonalLoop=1;jettySize=auto;html=1;entryX=1;entryY=0.25;entryDx=0;entryDy=0;" edge="1" parent="1" source="fhoYh320oMYoI7bT71kg-22" target="fhoYh320oMYoI7bT71kg-47">
          <mxGeometry relative="1" as="geometry">
            <Array as="points">
              <mxPoint x="1060" y="450" />
            </Array>
          </mxGeometry>
        </mxCell>
        <mxCell id="fhoYh320oMYoI7bT71kg-22" value="&lt;font style=&quot;font-size: 9px;&quot;&gt;Condensentrators&lt;/font&gt;" style="rounded=0;whiteSpace=wrap;html=1;" vertex="1" parent="1">
          <mxGeometry x="1000" y="320" width="80" height="40" as="geometry" />
        </mxCell>
        <mxCell id="fhoYh320oMYoI7bT71kg-35" style="edgeStyle=orthogonalEdgeStyle;rounded=0;orthogonalLoop=1;jettySize=auto;html=1;entryX=0.5;entryY=0;entryDx=0;entryDy=0;" edge="1" parent="1" source="fhoYh320oMYoI7bT71kg-34" target="fhoYh320oMYoI7bT71kg-14">
          <mxGeometry relative="1" as="geometry">
            <mxPoint x="630" y="920" as="targetPoint" />
          </mxGeometry>
        </mxCell>
        <mxCell id="fhoYh320oMYoI7bT71kg-40" style="edgeStyle=orthogonalEdgeStyle;rounded=0;orthogonalLoop=1;jettySize=auto;html=1;entryX=0.25;entryY=0;entryDx=0;entryDy=0;" edge="1" parent="1" source="fhoYh320oMYoI7bT71kg-37" target="fhoYh320oMYoI7bT71kg-14">
          <mxGeometry relative="1" as="geometry">
            <mxPoint x="610" y="960" as="targetPoint" />
            <Array as="points">
              <mxPoint x="610" y="570" />
            </Array>
          </mxGeometry>
        </mxCell>
        <mxCell id="fhoYh320oMYoI7bT71kg-27" style="edgeStyle=orthogonalEdgeStyle;rounded=0;orthogonalLoop=1;jettySize=auto;html=1;entryX=0.75;entryY=0;entryDx=0;entryDy=0;" edge="1" parent="1" source="fhoYh320oMYoI7bT71kg-26" target="fhoYh320oMYoI7bT71kg-14">
          <mxGeometry relative="1" as="geometry">
            <mxPoint x="640" y="960" as="targetPoint" />
            <Array as="points">
              <mxPoint x="630" y="860" />
            </Array>
          </mxGeometry>
        </mxCell>
        <mxCell id="fhoYh320oMYoI7bT71kg-46" value="SNA" style="whiteSpace=wrap;html=1;aspect=fixed;" vertex="1" parent="1">
          <mxGeometry x="1000" y="400" width="40" height="40" as="geometry" />
        </mxCell>
        <mxCell id="fhoYh320oMYoI7bT71kg-47" value="SNA" style="whiteSpace=wrap;html=1;aspect=fixed;" vertex="1" parent="1">
          <mxGeometry x="1000" y="440" width="40" height="40" as="geometry" />
        </mxCell>
        <mxCell id="fhoYh320oMYoI7bT71kg-81" style="edgeStyle=orthogonalEdgeStyle;rounded=0;orthogonalLoop=1;jettySize=auto;html=1;entryX=1;entryY=0.25;entryDx=0;entryDy=0;" edge="1" parent="1" source="fhoYh320oMYoI7bT71kg-48" target="fhoYh320oMYoI7bT71kg-71">
          <mxGeometry relative="1" as="geometry">
            <Array as="points">
              <mxPoint x="870" y="420" />
              <mxPoint x="870" y="290" />
            </Array>
          </mxGeometry>
        </mxCell>
        <mxCell id="fhoYh320oMYoI7bT71kg-48" value="&lt;font style=&quot;font-size: 10px;&quot;&gt;wired modem&lt;/font&gt;" style="whiteSpace=wrap;html=1;aspect=fixed;fillColor=#ffe6cc;strokeColor=#d79b00;" vertex="1" parent="1">
          <mxGeometry x="960" y="400" width="40" height="40" as="geometry" />
        </mxCell>
        <mxCell id="fhoYh320oMYoI7bT71kg-82" style="edgeStyle=orthogonalEdgeStyle;rounded=0;orthogonalLoop=1;jettySize=auto;html=1;entryX=1;entryY=0.75;entryDx=0;entryDy=0;" edge="1" parent="1" source="fhoYh320oMYoI7bT71kg-49" target="fhoYh320oMYoI7bT71kg-71">
          <mxGeometry relative="1" as="geometry">
            <Array as="points">
              <mxPoint x="850" y="460" />
              <mxPoint x="850" y="310" />
            </Array>
          </mxGeometry>
        </mxCell>
        <mxCell id="fhoYh320oMYoI7bT71kg-49" value="&lt;font style=&quot;font-size: 10px;&quot;&gt;wired modem&lt;/font&gt;" style="whiteSpace=wrap;html=1;aspect=fixed;fillColor=#ffe6cc;strokeColor=#d79b00;" vertex="1" parent="1">
          <mxGeometry x="960" y="440" width="40" height="40" as="geometry" />
        </mxCell>
        <mxCell id="fhoYh320oMYoI7bT71kg-83" style="edgeStyle=orthogonalEdgeStyle;rounded=0;orthogonalLoop=1;jettySize=auto;html=1;entryX=0.75;entryY=0;entryDx=0;entryDy=0;" edge="1" parent="1" source="fhoYh320oMYoI7bT71kg-54" target="fhoYh320oMYoI7bT71kg-71">
          <mxGeometry relative="1" as="geometry" />
        </mxCell>
        <mxCell id="fhoYh320oMYoI7bT71kg-54" value="&lt;font style=&quot;font-size: 10px;&quot;&gt;wired modem&lt;/font&gt;" style="whiteSpace=wrap;html=1;aspect=fixed;fillColor=#ffe6cc;strokeColor=#d79b00;" vertex="1" parent="1">
          <mxGeometry x="920" y="240" width="40" height="40" as="geometry" />
        </mxCell>
        <mxCell id="fhoYh320oMYoI7bT71kg-72" style="edgeStyle=orthogonalEdgeStyle;rounded=0;orthogonalLoop=1;jettySize=auto;html=1;entryX=0.25;entryY=0;entryDx=0;entryDy=0;" edge="1" parent="1" source="fhoYh320oMYoI7bT71kg-55" target="fhoYh320oMYoI7bT71kg-71">
          <mxGeometry relative="1" as="geometry" />
        </mxCell>
        <mxCell id="fhoYh320oMYoI7bT71kg-55" value="&lt;font style=&quot;font-size: 10px;&quot;&gt;wired modem&lt;/font&gt;" style="whiteSpace=wrap;html=1;aspect=fixed;fillColor=#ffe6cc;strokeColor=#d79b00;" vertex="1" parent="1">
          <mxGeometry x="920" y="120" width="40" height="40" as="geometry" />
        </mxCell>
        <mxCell id="fhoYh320oMYoI7bT71kg-56" value="&lt;font style=&quot;font-size: 10px;&quot;&gt;Therm.&lt;br&gt;Evap.&lt;br&gt;Valve&lt;br&gt;&lt;/font&gt;" style="whiteSpace=wrap;html=1;aspect=fixed;" vertex="1" parent="1">
          <mxGeometry x="960" y="240" width="40" height="40" as="geometry" />
        </mxCell>
        <mxCell id="fhoYh320oMYoI7bT71kg-58" value="&lt;font style=&quot;font-size: 10px;&quot;&gt;Therm.&lt;br&gt;Evap.&lt;br&gt;Valve&lt;br&gt;&lt;/font&gt;" style="whiteSpace=wrap;html=1;aspect=fixed;" vertex="1" parent="1">
          <mxGeometry x="960" y="120" width="40" height="40" as="geometry" />
        </mxCell>
        <mxCell id="fhoYh320oMYoI7bT71kg-38" style="edgeStyle=orthogonalEdgeStyle;rounded=0;orthogonalLoop=1;jettySize=auto;html=1;" edge="1" parent="1" source="fhoYh320oMYoI7bT71kg-31" target="fhoYh320oMYoI7bT71kg-17">
          <mxGeometry relative="1" as="geometry">
            <Array as="points">
              <mxPoint x="1020" y="740" />
            </Array>
          </mxGeometry>
        </mxCell>
        <mxCell id="fhoYh320oMYoI7bT71kg-39" style="edgeStyle=orthogonalEdgeStyle;rounded=0;orthogonalLoop=1;jettySize=auto;html=1;" edge="1" parent="1" source="fhoYh320oMYoI7bT71kg-36" target="fhoYh320oMYoI7bT71kg-18">
          <mxGeometry relative="1" as="geometry">
            <Array as="points">
              <mxPoint x="1060" y="620" />
            </Array>
          </mxGeometry>
        </mxCell>
        <mxCell id="fhoYh320oMYoI7bT71kg-45" style="edgeStyle=orthogonalEdgeStyle;rounded=0;orthogonalLoop=1;jettySize=auto;html=1;" edge="1" parent="1" source="fhoYh320oMYoI7bT71kg-42" target="fhoYh320oMYoI7bT71kg-19">
          <mxGeometry relative="1" as="geometry" />
        </mxCell>
        <mxCell id="fhoYh320oMYoI7bT71kg-60" style="edgeStyle=orthogonalEdgeStyle;rounded=0;orthogonalLoop=1;jettySize=auto;html=1;entryX=1;entryY=0;entryDx=0;entryDy=22.5;entryPerimeter=0;" edge="1" parent="1" source="fhoYh320oMYoI7bT71kg-47" target="fhoYh320oMYoI7bT71kg-36">
          <mxGeometry relative="1" as="geometry">
            <Array as="points">
              <mxPoint x="1080" y="470" />
              <mxPoint x="1080" y="600" />
              <mxPoint x="1040" y="600" />
            </Array>
          </mxGeometry>
        </mxCell>
        <mxCell id="fhoYh320oMYoI7bT71kg-61" style="edgeStyle=orthogonalEdgeStyle;rounded=0;orthogonalLoop=1;jettySize=auto;html=1;entryX=1;entryY=0;entryDx=0;entryDy=22.5;entryPerimeter=0;" edge="1" parent="1" source="fhoYh320oMYoI7bT71kg-46" target="fhoYh320oMYoI7bT71kg-36">
          <mxGeometry relative="1" as="geometry">
            <Array as="points">
              <mxPoint x="1080" y="430" />
              <mxPoint x="1080" y="600" />
              <mxPoint x="1040" y="600" />
            </Array>
          </mxGeometry>
        </mxCell>
        <mxCell id="fhoYh320oMYoI7bT71kg-62" value="Deuterium&lt;br&gt;Production&lt;br&gt;&lt;br&gt;(not monitored)" style="whiteSpace=wrap;html=1;aspect=fixed;" vertex="1" parent="1">
          <mxGeometry x="1241" y="640" width="120" height="120" as="geometry" />
        </mxCell>
        <mxCell id="fhoYh320oMYoI7bT71kg-63" style="edgeStyle=orthogonalEdgeStyle;rounded=0;orthogonalLoop=1;jettySize=auto;html=1;entryX=1;entryY=0;entryDx=0;entryDy=22.5;entryPerimeter=0;" edge="1" parent="1" source="fhoYh320oMYoI7bT71kg-62" target="fhoYh320oMYoI7bT71kg-31">
          <mxGeometry relative="1" as="geometry">
            <Array as="points">
              <mxPoint x="1020" y="700" />
              <mxPoint x="1020" y="723" />
              <mxPoint x="960" y="723" />
            </Array>
          </mxGeometry>
        </mxCell>
        <mxCell id="fhoYh320oMYoI7bT71kg-77" value="" style="endArrow=classic;html=1;rounded=0;exitX=0.5;exitY=0;exitDx=0;exitDy=0;entryX=0.5;entryY=1;entryDx=0;entryDy=0;dashed=1;dashPattern=8 8;" edge="1" parent="1" source="fhoYh320oMYoI7bT71kg-12" target="fhoYh320oMYoI7bT71kg-5">
          <mxGeometry width="50" height="50" relative="1" as="geometry">
            <mxPoint x="750" y="610" as="sourcePoint" />
            <mxPoint x="800" y="560" as="targetPoint" />
            <Array as="points">
              <mxPoint x="690" y="660" />
              <mxPoint x="290" y="660" />
            </Array>
          </mxGeometry>
        </mxCell>
        <mxCell id="fhoYh320oMYoI7bT71kg-80" style="edgeStyle=orthogonalEdgeStyle;rounded=0;orthogonalLoop=1;jettySize=auto;html=1;entryX=0.5;entryY=1;entryDx=0;entryDy=0;dashed=1;dashPattern=8 8;" edge="1" parent="1" source="fhoYh320oMYoI7bT71kg-69" target="fhoYh320oMYoI7bT71kg-5">
          <mxGeometry relative="1" as="geometry">
            <Array as="points">
              <mxPoint x="690" y="540" />
              <mxPoint x="290" y="540" />
            </Array>
          </mxGeometry>
        </mxCell>
        <mxCell id="fhoYh320oMYoI7bT71kg-88" style="edgeStyle=orthogonalEdgeStyle;rounded=0;orthogonalLoop=1;jettySize=auto;html=1;entryX=1;entryY=0.5;entryDx=0;entryDy=0;" edge="1" parent="1" source="fhoYh320oMYoI7bT71kg-86" target="fhoYh320oMYoI7bT71kg-14">
          <mxGeometry relative="1" as="geometry">
            <Array as="points">
              <mxPoint x="868" y="940" />
            </Array>
          </mxGeometry>
        </mxCell>
        <mxCell id="fhoYh320oMYoI7bT71kg-90" style="edgeStyle=orthogonalEdgeStyle;rounded=0;orthogonalLoop=1;jettySize=auto;html=1;" edge="1" parent="1" source="fhoYh320oMYoI7bT71kg-89" target="fhoYh320oMYoI7bT71kg-84">
          <mxGeometry relative="1" as="geometry" />
        </mxCell>
        <mxCell id="fhoYh320oMYoI7bT71kg-94" value="" style="group" vertex="1" connectable="0" parent="1">
          <mxGeometry x="848.5" y="1169" width="343" height="303" as="geometry" />
        </mxCell>
        <mxCell id="fhoYh320oMYoI7bT71kg-84" value="Turbine" style="whiteSpace=wrap;html=1;aspect=fixed;" vertex="1" parent="fhoYh320oMYoI7bT71kg-94">
          <mxGeometry x="40" width="303" height="303" as="geometry" />
        </mxCell>
        <mxCell id="fhoYh320oMYoI7bT71kg-85" value="&lt;font style=&quot;font-size: 10px;&quot;&gt;Turbine Valve&lt;br&gt;&lt;/font&gt;" style="whiteSpace=wrap;html=1;aspect=fixed;" vertex="1" parent="fhoYh320oMYoI7bT71kg-94">
          <mxGeometry x="40" y="31" width="40" height="40" as="geometry" />
        </mxCell>
        <mxCell id="fhoYh320oMYoI7bT71kg-86" value="&lt;font style=&quot;font-size: 10px;&quot;&gt;wired modem&lt;/font&gt;" style="whiteSpace=wrap;html=1;aspect=fixed;fillColor=#ffe6cc;strokeColor=#d79b00;" vertex="1" parent="fhoYh320oMYoI7bT71kg-94">
          <mxGeometry y="31" width="40" height="40" as="geometry" />
        </mxCell>
        <mxCell id="fhoYh320oMYoI7bT71kg-91" value="output energy" style="whiteSpace=wrap;html=1;aspect=fixed;fillColor=#d5e8d4;strokeColor=#82b366;" vertex="1" parent="fhoYh320oMYoI7bT71kg-94">
          <mxGeometry x="40" y="71" width="40" height="40" as="geometry" />
        </mxCell>
      </root>
    </mxGraphModel>
  </diagram>
</mxfile>
